<svg width="159" height="123" viewBox="0 0 159 123" fill="none" xmlns="http://www.w3.org/2000/svg">
<path fill-rule="evenodd" clip-rule="evenodd" d="M106.119 44.1466L79.2727 79.9421L70.7245 81.0273L51.5484 65.6864L59.0447 56.316L73.387 67.7897L96.5193 36.9466L106.119 44.1466Z" fill="url(#paint0_linear)"/>
<path d="M35.9781 17.6249C26.3354 27.0681 20.1388 39.4818 18.3824 52.8747H0.5L0.5 70.4996H18.3824C20.537 84.8295 27.6585 97.9419 38.4997 107.538C49.3409 117.134 63.2086 122.6 77.6711 122.979C92.1337 123.357 106.268 118.623 117.594 109.608C128.921 100.592 136.718 87.8696 139.617 73.6719V70.4996H158.5V52.8747H139.617C138.975 47.7726 137.612 42.7879 135.57 38.0698C130.978 26.7557 123.061 17.1059 112.871 10.3986C102.762 3.64403 90.8886 0.0268941 78.7365 0C62.7247 0.0143992 47.3622 6.34654 35.9781 17.6249ZM110.584 29.9625C118.812 38.2528 123.43 49.4682 123.428 61.1584C123.434 69.8674 120.864 78.383 116.041 85.6293C111.219 92.8756 104.36 98.5276 96.3322 101.872C90.3269 104.403 83.8337 105.561 77.3253 105.261C70.817 104.961 64.4572 103.211 58.7094 100.138C52.9616 97.065 47.9684 92.747 44.0972 87.4979C40.2259 82.2488 37.5734 76.2006 36.3303 69.7944C36.0709 66.9216 36.0709 64.0313 36.3303 61.1584C36.2006 55.1138 37.3385 49.1093 39.6725 43.5335C43.0112 35.4922 48.6549 28.6224 55.8892 23.7916C63.1235 18.9607 71.625 16.3852 80.3195 16.391C86.1257 16.597 91.8344 17.9485 97.1183 20.368C102.402 22.7875 107.158 26.2278 111.112 30.4913L110.584 29.9625Z" fill="url(#paint1_linear)"/>
<defs>
<linearGradient id="paint0_linear" x1="-15" y1="61.5" x2="175" y2="61.5" gradientUnits="userSpaceOnUse">
<stop stop-color="#FE5196"/>
<stop offset="1" stop-color="#F77062"/>
</linearGradient>
<linearGradient id="paint1_linear" x1="-15" y1="61.5" x2="175" y2="61.5" gradientUnits="userSpaceOnUse">
<stop stop-color="#FE5196"/>
<stop offset="1" stop-color="#F77062"/>
</linearGradient>
</defs>
</svg>